<mxfile host="app.diagrams.net" modified="2021-03-30T12:32:54.497Z" agent="5.0 (Windows NT 10.0; Win64; x64) AppleWebKit/537.36 (KHTML, like Gecko) Chrome/89.0.4389.90 Safari/537.36 Edg/89.0.774.57" etag="QFrsEIwn3SDuAkSnhpqe" version="14.5.3" type="github">
  <diagram id="C5RBs43oDa-KdzZeNtuy" name="Page-1">
    <mxGraphModel dx="190" dy="99" grid="1" gridSize="10" guides="1" tooltips="1" connect="1" arrows="1" fold="1" page="1" pageScale="1" pageWidth="827" pageHeight="1169" math="0" shadow="0">
      <root>
        <mxCell id="WIyWlLk6GJQsqaUBKTNV-0" />
        <mxCell id="WIyWlLk6GJQsqaUBKTNV-1" parent="WIyWlLk6GJQsqaUBKTNV-0" />
        <mxCell id="zkfFHV4jXpPFQw0GAbJ--26" value="" style="endArrow=open;shadow=0;strokeWidth=1;rounded=0;endFill=1;edgeStyle=elbowEdgeStyle;elbow=vertical;" parent="WIyWlLk6GJQsqaUBKTNV-1" edge="1">
          <mxGeometry x="0.5" y="41" relative="1" as="geometry">
            <mxPoint x="540" y="532" as="sourcePoint" />
            <mxPoint x="768" y="532" as="targetPoint" />
            <mxPoint x="-40" y="32" as="offset" />
          </mxGeometry>
        </mxCell>
        <mxCell id="zkfFHV4jXpPFQw0GAbJ--27" value="0..1" style="resizable=0;align=left;verticalAlign=bottom;labelBackgroundColor=none;fontSize=12;" parent="zkfFHV4jXpPFQw0GAbJ--26" connectable="0" vertex="1">
          <mxGeometry x="-1" relative="1" as="geometry">
            <mxPoint y="4" as="offset" />
          </mxGeometry>
        </mxCell>
        <mxCell id="zkfFHV4jXpPFQw0GAbJ--28" value="1" style="resizable=0;align=right;verticalAlign=bottom;labelBackgroundColor=none;fontSize=12;" parent="zkfFHV4jXpPFQw0GAbJ--26" connectable="0" vertex="1">
          <mxGeometry x="1" relative="1" as="geometry">
            <mxPoint x="-7" y="4" as="offset" />
          </mxGeometry>
        </mxCell>
        <mxCell id="zkfFHV4jXpPFQw0GAbJ--29" value="lives at" style="text;html=1;resizable=0;points=[];;align=center;verticalAlign=middle;labelBackgroundColor=none;rounded=0;shadow=0;strokeWidth=1;fontSize=12;" parent="zkfFHV4jXpPFQw0GAbJ--26" vertex="1" connectable="0">
          <mxGeometry x="0.5" y="49" relative="1" as="geometry">
            <mxPoint x="-38" y="40" as="offset" />
          </mxGeometry>
        </mxCell>
        <mxCell id="fo_5GOgOHiEw72MNf0Pl-1" value="Processor&lt;br&gt;Sub-system" style="rounded=0;whiteSpace=wrap;html=1;shadow=0;gradientColor=#ffffff;glass=0;fillColor=none;" vertex="1" parent="WIyWlLk6GJQsqaUBKTNV-1">
          <mxGeometry x="10" y="219" width="70" height="220" as="geometry" />
        </mxCell>
        <mxCell id="fo_5GOgOHiEw72MNf0Pl-8" value="Application&amp;nbsp;&lt;br&gt;Trigger&lt;br&gt;(CTIAPP)" style="rounded=0;whiteSpace=wrap;html=1;shadow=0;gradientColor=#ffffff;glass=0;fillColor=none;" vertex="1" parent="WIyWlLk6GJQsqaUBKTNV-1">
          <mxGeometry x="250" y="36" width="100" height="80" as="geometry" />
        </mxCell>
        <mxCell id="fo_5GOgOHiEw72MNf0Pl-13" value="Channel&lt;br&gt;pulse logic" style="rounded=0;whiteSpace=wrap;html=1;shadow=0;gradientColor=#ffffff;glass=0;fillColor=none;" vertex="1" parent="WIyWlLk6GJQsqaUBKTNV-1">
          <mxGeometry x="490" y="72" width="100" height="80" as="geometry" />
        </mxCell>
        <mxCell id="fo_5GOgOHiEw72MNf0Pl-14" value="Input trigger&lt;br&gt;&amp;amp;&lt;br&gt;Output&lt;br&gt;Channel&lt;br&gt;Mapping" style="rounded=0;whiteSpace=wrap;html=1;shadow=0;gradientColor=#ffffff;glass=0;fillColor=none;" vertex="1" parent="WIyWlLk6GJQsqaUBKTNV-1">
          <mxGeometry x="280" y="182" width="100" height="160" as="geometry" />
        </mxCell>
        <mxCell id="fo_5GOgOHiEw72MNf0Pl-15" value="Input trigger&lt;br&gt;&amp;amp;&lt;br&gt;Output&lt;br&gt;Channel&lt;br&gt;Mapping" style="rounded=0;whiteSpace=wrap;html=1;shadow=0;gradientColor=#ffffff;glass=0;fillColor=none;" vertex="1" parent="WIyWlLk6GJQsqaUBKTNV-1">
          <mxGeometry x="310" y="372" width="100" height="170" as="geometry" />
        </mxCell>
        <mxCell id="fo_5GOgOHiEw72MNf0Pl-30" style="edgeStyle=orthogonalEdgeStyle;rounded=0;orthogonalLoop=1;jettySize=auto;html=1;exitX=0.001;exitY=0.421;exitDx=0;exitDy=0;entryX=1.012;entryY=0.137;entryDx=0;entryDy=0;entryPerimeter=0;spacing=13;fontSize=10;exitPerimeter=0;" edge="1" parent="WIyWlLk6GJQsqaUBKTNV-1">
          <mxGeometry relative="1" as="geometry">
            <mxPoint x="130.10000000000002" y="240.36" as="sourcePoint" />
            <mxPoint x="80.83999999999997" y="240.14" as="targetPoint" />
            <Array as="points">
              <mxPoint x="105" y="240" />
              <mxPoint x="81" y="240" />
            </Array>
          </mxGeometry>
        </mxCell>
        <mxCell id="fo_5GOgOHiEw72MNf0Pl-16" value="Input &lt;br&gt;Trigger&lt;br&gt;interface" style="rounded=0;whiteSpace=wrap;html=1;shadow=0;gradientColor=#ffffff;glass=0;fillColor=none;" vertex="1" parent="WIyWlLk6GJQsqaUBKTNV-1">
          <mxGeometry x="130" y="182" width="100" height="160" as="geometry" />
        </mxCell>
        <mxCell id="fo_5GOgOHiEw72MNf0Pl-19" value="" style="endArrow=classic;html=1;entryX=-0.016;entryY=0.059;entryDx=0;entryDy=0;entryPerimeter=0;exitX=0.99;exitY=0.059;exitDx=0;exitDy=0;exitPerimeter=0;" edge="1" parent="WIyWlLk6GJQsqaUBKTNV-1">
          <mxGeometry width="50" height="50" relative="1" as="geometry">
            <mxPoint x="230" y="192.03" as="sourcePoint" />
            <mxPoint x="279.40000000000003" y="192.03" as="targetPoint" />
            <Array as="points">
              <mxPoint x="251" y="192" />
            </Array>
          </mxGeometry>
        </mxCell>
        <mxCell id="fo_5GOgOHiEw72MNf0Pl-21" value="" style="endArrow=classic;html=1;entryX=-0.016;entryY=0.059;entryDx=0;entryDy=0;entryPerimeter=0;exitX=0.99;exitY=0.059;exitDx=0;exitDy=0;exitPerimeter=0;" edge="1" parent="WIyWlLk6GJQsqaUBKTNV-1">
          <mxGeometry width="50" height="50" relative="1" as="geometry">
            <mxPoint x="230" y="212.63" as="sourcePoint" />
            <mxPoint x="279.40000000000003" y="212.63" as="targetPoint" />
            <Array as="points">
              <mxPoint x="251" y="212.6" />
            </Array>
          </mxGeometry>
        </mxCell>
        <mxCell id="fo_5GOgOHiEw72MNf0Pl-22" value="" style="endArrow=classic;html=1;entryX=-0.005;entryY=0.12;entryDx=0;entryDy=0;entryPerimeter=0;exitX=1.003;exitY=0.313;exitDx=0;exitDy=0;exitPerimeter=0;" edge="1" parent="WIyWlLk6GJQsqaUBKTNV-1" source="fo_5GOgOHiEw72MNf0Pl-16">
          <mxGeometry width="50" height="50" relative="1" as="geometry">
            <mxPoint x="230" y="231.60000000000002" as="sourcePoint" />
            <mxPoint x="279.5" y="232" as="targetPoint" />
            <Array as="points">
              <mxPoint x="250" y="232" />
            </Array>
          </mxGeometry>
        </mxCell>
        <mxCell id="fo_5GOgOHiEw72MNf0Pl-24" value="" style="endArrow=classic;html=1;entryX=-0.016;entryY=0.059;entryDx=0;entryDy=0;entryPerimeter=0;exitX=0.99;exitY=0.059;exitDx=0;exitDy=0;exitPerimeter=0;" edge="1" parent="WIyWlLk6GJQsqaUBKTNV-1">
          <mxGeometry width="50" height="50" relative="1" as="geometry">
            <mxPoint x="230" y="252.03" as="sourcePoint" />
            <mxPoint x="279.40000000000003" y="252.03" as="targetPoint" />
            <Array as="points">
              <mxPoint x="251" y="252" />
            </Array>
          </mxGeometry>
        </mxCell>
        <mxCell id="fo_5GOgOHiEw72MNf0Pl-26" value="" style="endArrow=classic;html=1;entryX=-0.016;entryY=0.059;entryDx=0;entryDy=0;entryPerimeter=0;exitX=0.99;exitY=0.059;exitDx=0;exitDy=0;exitPerimeter=0;" edge="1" parent="WIyWlLk6GJQsqaUBKTNV-1">
          <mxGeometry width="50" height="50" relative="1" as="geometry">
            <mxPoint x="230" y="272.63" as="sourcePoint" />
            <mxPoint x="279.40000000000003" y="272.63" as="targetPoint" />
            <Array as="points">
              <mxPoint x="251" y="272.6" />
            </Array>
          </mxGeometry>
        </mxCell>
        <mxCell id="fo_5GOgOHiEw72MNf0Pl-27" value="" style="endArrow=classic;html=1;entryX=0;entryY=0.937;entryDx=0;entryDy=0;entryPerimeter=0;" edge="1" parent="WIyWlLk6GJQsqaUBKTNV-1" target="fo_5GOgOHiEw72MNf0Pl-14">
          <mxGeometry width="50" height="50" relative="1" as="geometry">
            <mxPoint x="230" y="332" as="sourcePoint" />
            <mxPoint x="279.5" y="333" as="targetPoint" />
            <Array as="points" />
          </mxGeometry>
        </mxCell>
        <mxCell id="fo_5GOgOHiEw72MNf0Pl-28" value="" style="endArrow=classic;html=1;entryX=-0.002;entryY=0.942;entryDx=0;entryDy=0;entryPerimeter=0;" edge="1" parent="WIyWlLk6GJQsqaUBKTNV-1">
          <mxGeometry width="50" height="50" relative="1" as="geometry">
            <mxPoint x="230" y="312" as="sourcePoint" />
            <mxPoint x="279.8" y="312.14" as="targetPoint" />
            <Array as="points">
              <mxPoint x="260" y="312" />
            </Array>
          </mxGeometry>
        </mxCell>
        <mxCell id="fo_5GOgOHiEw72MNf0Pl-29" value="" style="endArrow=classic;html=1;entryX=-0.002;entryY=0.942;entryDx=0;entryDy=0;entryPerimeter=0;" edge="1" parent="WIyWlLk6GJQsqaUBKTNV-1">
          <mxGeometry width="50" height="50" relative="1" as="geometry">
            <mxPoint x="230" y="292" as="sourcePoint" />
            <mxPoint x="279.8" y="292.14" as="targetPoint" />
            <Array as="points">
              <mxPoint x="260" y="292" />
            </Array>
          </mxGeometry>
        </mxCell>
        <mxCell id="fo_5GOgOHiEw72MNf0Pl-32" value="" style="endArrow=classic;html=1;entryX=-0.005;entryY=0.735;entryDx=0;entryDy=0;entryPerimeter=0;" edge="1" parent="WIyWlLk6GJQsqaUBKTNV-1" target="fo_5GOgOHiEw72MNf0Pl-16">
          <mxGeometry width="50" height="50" relative="1" as="geometry">
            <mxPoint x="81" y="300" as="sourcePoint" />
            <mxPoint x="127" y="300" as="targetPoint" />
            <Array as="points" />
          </mxGeometry>
        </mxCell>
        <mxCell id="fo_5GOgOHiEw72MNf0Pl-33" value="" style="endArrow=classic;html=1;" edge="1" parent="WIyWlLk6GJQsqaUBKTNV-1">
          <mxGeometry width="50" height="50" relative="1" as="geometry">
            <mxPoint x="105" y="300" as="sourcePoint" />
            <mxPoint x="134" y="360" as="targetPoint" />
            <Array as="points">
              <mxPoint x="105" y="320" />
              <mxPoint x="105" y="360" />
              <mxPoint x="134" y="360" />
            </Array>
          </mxGeometry>
        </mxCell>
      </root>
    </mxGraphModel>
  </diagram>
</mxfile>
